<?xml version="1.0" encoding="us-ascii" standalone="no"?><svg xmlns="http://www.w3.org/2000/svg" xmlns:xlink="http://www.w3.org/1999/xlink" contentStyleType="text/css" height="1826px" preserveAspectRatio="none" style="width:1726px;height:1826px;background:#FFFFFF;" version="1.1" viewBox="0 0 1726 1826" width="1726px" zoomAndPan="magnify"><defs/><g><text fill="#000000" font-family="sans-serif" font-size="14" font-weight="bold" lengthAdjust="spacing" textLength="192" x="760.27" y="24.5332">Foodie App - Class Diagram</text><!--class User--><g id="elem_User"><rect codeLine="16" fill="#F0F8FF" height="237.3125" id="User" rx="2.5" ry="2.5" style="stroke:#2688D4;stroke-width:0.5;" width="172" x="198.04" y="778.6094"/><text fill="#000000" font-family="sans-serif" font-size="14" lengthAdjust="spacing" textLength="29" x="269.54" y="798.1426">User</text><line style="stroke:#2688D4;stroke-width:0.5;" x1="199.04" x2="369.04" y1="806.2188" y2="806.2188"/><text fill="#000000" font-family="sans-serif" font-size="14" lengthAdjust="spacing" textLength="39" x="204.04" y="824.752">-id: int</text><text fill="#000000" font-family="sans-serif" font-size="14" lengthAdjust="spacing" textLength="83" x="204.04" y="842.3613">-name: string</text><text fill="#000000" font-family="sans-serif" font-size="14" lengthAdjust="spacing" textLength="99" x="204.04" y="859.9707">-address: string</text><text fill="#000000" font-family="sans-serif" font-size="14" lengthAdjust="spacing" textLength="69" x="204.04" y="877.5801">-cart: Cart*</text><line style="stroke:#2688D4;stroke-width:0.5;" x1="199.04" x2="369.04" y1="884.6563" y2="884.6563"/><text fill="#000000" font-family="sans-serif" font-size="14" lengthAdjust="spacing" textLength="160" x="204.04" y="903.1895">+User(id, name, address)</text><text fill="#000000" font-family="sans-serif" font-size="14" lengthAdjust="spacing" textLength="72" x="204.04" y="920.7988">+getId(): int</text><text fill="#000000" font-family="sans-serif" font-size="14" lengthAdjust="spacing" textLength="117" x="204.04" y="938.4082">+getName(): string</text><text fill="#000000" font-family="sans-serif" font-size="14" lengthAdjust="spacing" textLength="133" x="204.04" y="956.0176">+getAddress(): string</text><text fill="#000000" font-family="sans-serif" font-size="14" lengthAdjust="spacing" textLength="105" x="204.04" y="973.627">+getCart(): Cart*</text><text fill="#000000" font-family="sans-serif" font-size="14" lengthAdjust="spacing" textLength="108" x="204.04" y="991.2363">+setName(name)</text><text fill="#000000" font-family="sans-serif" font-size="14" lengthAdjust="spacing" textLength="140" x="204.04" y="1008.8457">+setAddress(address)</text></g><!--class Cart--><g id="elem_Cart"><rect codeLine="30" fill="#F0F8FF" height="237.3125" id="Cart" rx="2.5" ry="2.5" style="stroke:#2688D4;stroke-width:0.5;" width="254" x="142.04" y="1075.6094"/><text fill="#000000" font-family="sans-serif" font-size="14" lengthAdjust="spacing" textLength="27" x="255.54" y="1095.1426">Cart</text><line style="stroke:#2688D4;stroke-width:0.5;" x1="143.04" x2="395.04" y1="1103.2188" y2="1103.2188"/><text fill="#000000" font-family="sans-serif" font-size="14" lengthAdjust="spacing" textLength="153" x="148.04" y="1121.752">-restaurant: Restaurant*</text><text fill="#000000" font-family="sans-serif" font-size="14" lengthAdjust="spacing" textLength="162" x="148.04" y="1139.3613">-items: vector&lt;MenuItem&gt;</text><line style="stroke:#2688D4;stroke-width:0.5;" x1="143.04" x2="395.04" y1="1146.4375" y2="1146.4375"/><text fill="#000000" font-family="sans-serif" font-size="14" lengthAdjust="spacing" textLength="94" x="148.04" y="1164.9707">+addItem(item)</text><text fill="#000000" font-family="sans-serif" font-size="14" lengthAdjust="spacing" textLength="151" x="148.04" y="1182.5801">+removeItem(itemCode)</text><text fill="#000000" font-family="sans-serif" font-size="14" lengthAdjust="spacing" textLength="49" x="148.04" y="1200.1895">+clear()</text><text fill="#000000" font-family="sans-serif" font-size="14" lengthAdjust="spacing" textLength="242" x="148.04" y="1217.7988">+getItems(): const vector&lt;MenuItem&gt;&amp;</text><text fill="#000000" font-family="sans-serif" font-size="14" lengthAdjust="spacing" textLength="191" x="148.04" y="1235.4082">+getRestaurant(): Restaurant*</text><text fill="#000000" font-family="sans-serif" font-size="14" lengthAdjust="spacing" textLength="102" x="148.04" y="1253.0176">+isEmpty(): bool</text><text fill="#000000" font-family="sans-serif" font-size="14" lengthAdjust="spacing" textLength="146" x="148.04" y="1270.627">+getItemCount(): size_t</text><text fill="#000000" font-family="sans-serif" font-size="14" lengthAdjust="spacing" textLength="150" x="148.04" y="1288.2363">+getTotalCost(): double</text><text fill="#000000" font-family="sans-serif" font-size="14" lengthAdjust="spacing" textLength="112" x="148.04" y="1305.8457">+setRestaurant(r)</text></g><!--class MenuItem--><g id="elem_MenuItem"><rect codeLine="44" fill="#F0F8FF" height="166.875" id="MenuItem" rx="2.5" ry="2.5" style="stroke:#2688D4;stroke-width:0.5;" width="211" x="379.54" y="1652.6094"/><text fill="#000000" font-family="sans-serif" font-size="14" lengthAdjust="spacing" textLength="61" x="454.54" y="1672.1426">MenuItem</text><line style="stroke:#2688D4;stroke-width:0.5;" x1="380.54" x2="589.54" y1="1680.2188" y2="1680.2188"/><text fill="#000000" font-family="sans-serif" font-size="14" lengthAdjust="spacing" textLength="59" x="385.54" y="1698.752">-id: string</text><text fill="#000000" font-family="sans-serif" font-size="14" lengthAdjust="spacing" textLength="110" x="385.54" y="1716.3613">-dishName: string</text><text fill="#000000" font-family="sans-serif" font-size="14" lengthAdjust="spacing" textLength="87" x="385.54" y="1733.9707">-price: double</text><line style="stroke:#2688D4;stroke-width:0.5;" x1="380.54" x2="589.54" y1="1741.0469" y2="1741.0469"/><text fill="#000000" font-family="sans-serif" font-size="14" lengthAdjust="spacing" textLength="199" x="385.54" y="1759.5801">+MenuItem(id, dishName, price)</text><text fill="#000000" font-family="sans-serif" font-size="14" lengthAdjust="spacing" textLength="92" x="385.54" y="1777.1895">+getId(): string</text><text fill="#000000" font-family="sans-serif" font-size="14" lengthAdjust="spacing" textLength="117" x="385.54" y="1794.7988">+getName(): string</text><text fill="#000000" font-family="sans-serif" font-size="14" lengthAdjust="spacing" textLength="121" x="385.54" y="1812.4082">+getPrice(): double</text></g><!--class Restaurant--><g id="elem_Restaurant"><rect codeLine="54" fill="#F0F8FF" height="219.7031" id="Restaurant" rx="2.5" ry="2.5" style="stroke:#2688D4;stroke-width:0.5;" width="256" x="357.04" y="1372.6094"/><text fill="#000000" font-family="sans-serif" font-size="14" lengthAdjust="spacing" textLength="70" x="450.04" y="1392.1426">Restaurant</text><line style="stroke:#2688D4;stroke-width:0.5;" x1="358.04" x2="612.04" y1="1400.2188" y2="1400.2188"/><text fill="#000000" font-family="sans-serif" font-size="14" lengthAdjust="spacing" textLength="104" x="363.04" y="1418.752">-restaurantId: int</text><text fill="#000000" font-family="sans-serif" font-size="14" lengthAdjust="spacing" textLength="83" x="363.04" y="1436.3613">-name: string</text><text fill="#000000" font-family="sans-serif" font-size="14" lengthAdjust="spacing" textLength="97" x="363.04" y="1453.9707">-location: string</text><text fill="#000000" font-family="sans-serif" font-size="14" lengthAdjust="spacing" textLength="164" x="363.04" y="1471.5801">-menu: vector&lt;MenuItem&gt;</text><line style="stroke:#2688D4;stroke-width:0.5;" x1="358.04" x2="612.04" y1="1478.6563" y2="1478.6563"/><text fill="#000000" font-family="sans-serif" font-size="14" lengthAdjust="spacing" textLength="180" x="363.04" y="1497.1895">+Restaurant(name, location)</text><text fill="#000000" font-family="sans-serif" font-size="14" lengthAdjust="spacing" textLength="117" x="363.04" y="1514.7988">+getName(): string</text><text fill="#000000" font-family="sans-serif" font-size="14" lengthAdjust="spacing" textLength="135" x="363.04" y="1532.4082">+getLocation(): string</text><text fill="#000000" font-family="sans-serif" font-size="14" lengthAdjust="spacing" textLength="244" x="363.04" y="1550.0176">+getMenu(): const vector&lt;MenuItem&gt;&amp;</text><text fill="#000000" font-family="sans-serif" font-size="14" lengthAdjust="spacing" textLength="129" x="363.04" y="1567.627">+addMenuItem(item)</text><text fill="#000000" font-family="sans-serif" font-size="14" lengthAdjust="spacing" textLength="236" x="363.04" y="1585.2363">+findMenuItem(itemCode): MenuItem*</text></g><!--class Order--><g id="elem_Order"><rect codeLine="67" fill="#F0F8FF" height="290.1406" id="Order" rx="2.5" ry="2.5" style="stroke:#2688D4;stroke-width:0.5;" width="248" x="739.04" y="428.6094"/><text fill="#000000" font-family="sans-serif" font-size="14" font-style="italic" lengthAdjust="spacing" textLength="37" x="844.54" y="448.1426">Order</text><line style="stroke:#2688D4;stroke-width:0.5;" x1="740.04" x2="986.04" y1="456.2188" y2="456.2188"/><text fill="#000000" font-family="sans-serif" font-size="14" lengthAdjust="spacing" textLength="76" x="745.04" y="474.752">#orderId: int</text><text fill="#000000" font-family="sans-serif" font-size="14" lengthAdjust="spacing" textLength="78" x="745.04" y="492.3613">#user: User*</text><text fill="#000000" font-family="sans-serif" font-size="14" lengthAdjust="spacing" textLength="156" x="745.04" y="509.9707">#restaurant: Restaurant*</text><text fill="#000000" font-family="sans-serif" font-size="14" lengthAdjust="spacing" textLength="165" x="745.04" y="527.5801">#items: vector&lt;MenuItem&gt;</text><text fill="#000000" font-family="sans-serif" font-size="14" lengthAdjust="spacing" textLength="236" x="745.04" y="545.1895">#paymentStrategy: PaymentStrategy*</text><text fill="#000000" font-family="sans-serif" font-size="14" lengthAdjust="spacing" textLength="86" x="745.04" y="562.7988">#total: double</text><text fill="#000000" font-family="sans-serif" font-size="14" lengthAdjust="spacing" textLength="116" x="745.04" y="580.4082">#scheduled: string</text><line style="stroke:#2688D4;stroke-width:0.5;" x1="740.04" x2="986.04" y1="587.4844" y2="587.4844"/><text fill="#000000" font-family="sans-serif" font-size="14" lengthAdjust="spacing" textLength="179" x="745.04" y="606.0176">+virtual getType(): string = 0</text><text fill="#000000" font-family="sans-serif" font-size="14" lengthAdjust="spacing" textLength="94" x="745.04" y="623.627">+setUser(user)</text><text fill="#000000" font-family="sans-serif" font-size="14" lengthAdjust="spacing" textLength="172" x="745.04" y="641.2363">+setRestaurant(restaurant)</text><text fill="#000000" font-family="sans-serif" font-size="14" lengthAdjust="spacing" textLength="103" x="745.04" y="658.8457">+setItems(items)</text><text fill="#000000" font-family="sans-serif" font-size="14" lengthAdjust="spacing" textLength="196" x="745.04" y="676.4551">+setPaymentStrategy(strategy)</text><text fill="#000000" font-family="sans-serif" font-size="14" lengthAdjust="spacing" textLength="96" x="745.04" y="694.0645">+setTotal(total)</text><text fill="#000000" font-family="sans-serif" font-size="14" lengthAdjust="spacing" textLength="161" x="745.04" y="711.6738">+setScheduledTime(time)</text></g><!--class DeliveryOrder--><g id="elem_DeliveryOrder"><rect codeLine="84" fill="#F0F8FF" height="96.4375" id="DeliveryOrder" rx="2.5" ry="2.5" style="stroke:#2688D4;stroke-width:0.5;" width="169" x="1141.54" y="849.1094"/><text fill="#000000" font-family="sans-serif" font-size="14" lengthAdjust="spacing" textLength="88" x="1182.04" y="868.6426">DeliveryOrder</text><line style="stroke:#2688D4;stroke-width:0.5;" x1="1142.54" x2="1309.54" y1="876.7188" y2="876.7188"/><text fill="#000000" font-family="sans-serif" font-size="14" lengthAdjust="spacing" textLength="149" x="1147.54" y="895.252">-deliveryAddress: string</text><text fill="#000000" font-family="sans-serif" font-size="14" lengthAdjust="spacing" textLength="130" x="1147.54" y="912.8613">-deliveryFee: double</text><line style="stroke:#2688D4;stroke-width:0.5;" x1="1142.54" x2="1309.54" y1="919.9375" y2="919.9375"/><text fill="#000000" font-family="sans-serif" font-size="14" lengthAdjust="spacing" textLength="157" x="1147.54" y="938.4707">+calculateTotal(): double</text></g><!--class PickupOrder--><g id="elem_PickupOrder"><rect codeLine="90" fill="#F0F8FF" height="78.8281" id="PickupOrder" rx="2.5" ry="2.5" style="stroke:#2688D4;stroke-width:0.5;" width="155" x="573.54" y="857.6094"/><text fill="#000000" font-family="sans-serif" font-size="14" lengthAdjust="spacing" textLength="79" x="611.54" y="877.1426">PickupOrder</text><line style="stroke:#2688D4;stroke-width:0.5;" x1="574.54" x2="727.54" y1="885.2188" y2="885.2188"/><text fill="#000000" font-family="sans-serif" font-size="14" lengthAdjust="spacing" textLength="143" x="579.54" y="903.752">-pickupLocation: string</text><text fill="#000000" font-family="sans-serif" font-size="14" lengthAdjust="spacing" textLength="91" x="579.54" y="921.3613">-isReady: bool</text><line style="stroke:#2688D4;stroke-width:0.5;" x1="574.54" x2="727.54" y1="928.4375" y2="928.4375"/></g><!--class OrderFactory--><g id="elem_OrderFactory"><rect codeLine="95" fill="#F0F8FF" height="61.2188" id="OrderFactory" rx="2.5" ry="2.5" style="stroke:#2688D4;stroke-width:0.5;" width="235" x="1314.54" y="543.1094"/><text fill="#000000" font-family="sans-serif" font-size="14" font-style="italic" lengthAdjust="spacing" textLength="85" x="1389.54" y="562.6426">OrderFactory</text><line style="stroke:#2688D4;stroke-width:0.5;" x1="1315.54" x2="1548.54" y1="570.7188" y2="570.7188"/><line style="stroke:#2688D4;stroke-width:0.5;" x1="1315.54" x2="1548.54" y1="578.7188" y2="578.7188"/><text fill="#000000" font-family="sans-serif" font-size="14" lengthAdjust="spacing" textLength="223" x="1320.54" y="597.252">+virtual createOrder(...): Order* = 0</text></g><!--class NowOrderFactory--><g id="elem_NowOrderFactory"><rect codeLine="99" fill="#F0F8FF" height="61.2188" id="NowOrderFactory" rx="2.5" ry="2.5" style="stroke:#2688D4;stroke-width:0.5;" width="169" x="1550.54" y="866.6094"/><text fill="#000000" font-family="sans-serif" font-size="14" lengthAdjust="spacing" textLength="111" x="1579.54" y="886.1426">NowOrderFactory</text><line style="stroke:#2688D4;stroke-width:0.5;" x1="1551.54" x2="1718.54" y1="894.2188" y2="894.2188"/><line style="stroke:#2688D4;stroke-width:0.5;" x1="1551.54" x2="1718.54" y1="902.2188" y2="902.2188"/><text fill="#000000" font-family="sans-serif" font-size="14" lengthAdjust="spacing" textLength="157" x="1556.54" y="920.752">+createOrder(...): Order*</text></g><!--class ScheduledOrderFactory--><g id="elem_ScheduledOrderFactory"><rect codeLine="103" fill="#F0F8FF" height="61.2188" id="ScheduledOrderFactory" rx="2.5" ry="2.5" style="stroke:#2688D4;stroke-width:0.5;" width="169" x="1346.54" y="866.6094"/><text fill="#000000" font-family="sans-serif" font-size="14" lengthAdjust="spacing" textLength="152" x="1355.04" y="886.1426">ScheduledOrderFactory</text><line style="stroke:#2688D4;stroke-width:0.5;" x1="1347.54" x2="1514.54" y1="894.2188" y2="894.2188"/><line style="stroke:#2688D4;stroke-width:0.5;" x1="1347.54" x2="1514.54" y1="902.2188" y2="902.2188"/><text fill="#000000" font-family="sans-serif" font-size="14" lengthAdjust="spacing" textLength="157" x="1352.54" y="920.752">+createOrder(...): Order*</text></g><!--class PaymentStrategy--><g id="elem_PaymentStrategy"><rect codeLine="107" fill="#F0F8FF" height="61.2188" id="PaymentStrategy" rx="2.5" ry="2.5" style="stroke:#2688D4;stroke-width:0.5;" width="200" x="764.04" y="866.6094"/><text fill="#000000" font-family="sans-serif" font-size="14" font-style="italic" lengthAdjust="spacing" textLength="108" x="810.04" y="886.1426">PaymentStrategy</text><line style="stroke:#2688D4;stroke-width:0.5;" x1="765.04" x2="963.04" y1="894.2188" y2="894.2188"/><line style="stroke:#2688D4;stroke-width:0.5;" x1="765.04" x2="963.04" y1="902.2188" y2="902.2188"/><text fill="#000000" font-family="sans-serif" font-size="14" lengthAdjust="spacing" textLength="188" x="770.04" y="920.752">+virtual pay(amount): void = 0</text></g><!--class CardPaymentStrategy--><g id="elem_CardPaymentStrategy"><rect codeLine="111" fill="#F0F8FF" height="61.2188" id="CardPaymentStrategy" rx="2.5" ry="2.5" style="stroke:#2688D4;stroke-width:0.5;" width="145" x="804.54" y="1163.6094"/><text fill="#000000" font-family="sans-serif" font-size="14" lengthAdjust="spacing" textLength="139" x="807.54" y="1183.1426">CardPaymentStrategy</text><line style="stroke:#2688D4;stroke-width:0.5;" x1="805.54" x2="948.54" y1="1191.2188" y2="1191.2188"/><line style="stroke:#2688D4;stroke-width:0.5;" x1="805.54" x2="948.54" y1="1199.2188" y2="1199.2188"/><text fill="#000000" font-family="sans-serif" font-size="14" lengthAdjust="spacing" textLength="122" x="810.54" y="1217.752">+pay(amount): void</text></g><!--class UPIStrategy--><g id="elem_UPIStrategy"><rect codeLine="115" fill="#F0F8FF" height="61.2188" id="UPIStrategy" rx="2.5" ry="2.5" style="stroke:#2688D4;stroke-width:0.5;" width="134" x="635.04" y="1163.6094"/><text fill="#000000" font-family="sans-serif" font-size="14" lengthAdjust="spacing" textLength="74" x="665.04" y="1183.1426">UPIStrategy</text><line style="stroke:#2688D4;stroke-width:0.5;" x1="636.04" x2="768.04" y1="1191.2188" y2="1191.2188"/><line style="stroke:#2688D4;stroke-width:0.5;" x1="636.04" x2="768.04" y1="1199.2188" y2="1199.2188"/><text fill="#000000" font-family="sans-serif" font-size="14" lengthAdjust="spacing" textLength="122" x="641.04" y="1217.752">+pay(amount): void</text></g><!--class OrderManager--><g id="elem_OrderManager"><rect codeLine="119" fill="#F0F8FF" height="96.4375" id="OrderManager" rx="2.5" ry="2.5" style="stroke:#2688D4;stroke-width:0.5;" width="318" x="954.04" y="272.6094"/><text fill="#000000" font-family="sans-serif" font-size="14" lengthAdjust="spacing" textLength="93" x="1066.54" y="292.1426">OrderManager</text><line style="stroke:#2688D4;stroke-width:0.5;" x1="955.04" x2="1271.04" y1="300.2188" y2="300.2188"/><text fill="#000000" font-family="sans-serif" font-size="14" lengthAdjust="spacing" textLength="151" x="960.04" y="318.752">-orders: vector&lt;Order*&gt;</text><line style="stroke:#2688D4;stroke-width:0.5;" x1="955.04" x2="1271.04" y1="325.8281" y2="325.8281"/><text fill="#000000" font-family="sans-serif" font-size="14" lengthAdjust="spacing" textLength="306" x="960.04" y="344.3613">+placeOrder(user, orderType, schedule): Order*</text><text fill="#000000" font-family="sans-serif" font-size="14" lengthAdjust="spacing" textLength="170" x="960.04" y="361.9707">+getOrder(orderId): Order*</text></g><!--class RestaurantManager--><g id="elem_RestaurantManager"><rect codeLine="125" fill="#F0F8FF" height="96.4375" id="RestaurantManager" rx="2.5" ry="2.5" style="stroke:#2688D4;stroke-width:0.5;" width="330" x="269.04" y="272.6094"/><text fill="#000000" font-family="sans-serif" font-size="14" lengthAdjust="spacing" textLength="126" x="371.04" y="292.1426">RestaurantManager</text><line style="stroke:#2688D4;stroke-width:0.5;" x1="270.04" x2="598.04" y1="300.2188" y2="300.2188"/><text fill="#000000" font-family="sans-serif" font-size="14" lengthAdjust="spacing" textLength="215" x="275.04" y="318.752">-restaurants: vector&lt;Restaurant*&gt;</text><line style="stroke:#2688D4;stroke-width:0.5;" x1="270.04" x2="598.04" y1="325.8281" y2="325.8281"/><text fill="#000000" font-family="sans-serif" font-size="14" lengthAdjust="spacing" textLength="318" x="275.04" y="344.3613">+searchRestaurant(location): vector&lt;Restaurant*&gt;</text><text fill="#000000" font-family="sans-serif" font-size="14" lengthAdjust="spacing" textLength="229" x="275.04" y="361.9707">+getRestaurantById(id): Restaurant*</text></g><!--class NotificationService--><g id="elem_NotificationService"><rect codeLine="131" fill="#F0F8FF" height="61.2188" id="NotificationService" rx="2.5" ry="2.5" style="stroke:#2688D4;stroke-width:0.5;" width="257" x="1022.54" y="543.1094"/><text fill="#000000" font-family="sans-serif" font-size="14" lengthAdjust="spacing" textLength="116" x="1093.04" y="562.6426">NotificationService</text><line style="stroke:#2688D4;stroke-width:0.5;" x1="1023.54" x2="1278.54" y1="570.7188" y2="570.7188"/><line style="stroke:#2688D4;stroke-width:0.5;" x1="1023.54" x2="1278.54" y1="578.7188" y2="578.7188"/><text fill="#000000" font-family="sans-serif" font-size="14" lengthAdjust="spacing" textLength="245" x="1028.54" y="597.252">+sendNotification(user, message): void</text></g><!--class FoodieApp--><g id="elem_FoodieApp"><rect codeLine="135" fill="#F0F8FF" height="166.875" id="FoodieApp" rx="2.5" ry="2.5" style="stroke:#2688D4;stroke-width:0.5;" width="383" x="351.54" y="45.6094"/><text fill="#000000" font-family="sans-serif" font-size="14" lengthAdjust="spacing" textLength="69" x="508.54" y="65.1426">FoodieApp</text><line style="stroke:#2688D4;stroke-width:0.5;" x1="352.54" x2="733.54" y1="73.2188" y2="73.2188"/><text fill="#000000" font-family="sans-serif" font-size="14" lengthAdjust="spacing" textLength="260" x="357.54" y="91.752">-restaurantManager: RestaurantManager</text><text fill="#000000" font-family="sans-serif" font-size="14" lengthAdjust="spacing" textLength="196" x="357.54" y="109.3613">-orderManager: OrderManager</text><line style="stroke:#2688D4;stroke-width:0.5;" x1="352.54" x2="733.54" y1="116.4375" y2="116.4375"/><text fill="#000000" font-family="sans-serif" font-size="14" lengthAdjust="spacing" textLength="144" x="357.54" y="134.9707">+initializeRestaurants()</text><text fill="#000000" font-family="sans-serif" font-size="14" lengthAdjust="spacing" textLength="187" x="357.54" y="152.5801">+searchRestaurants(location)</text><text fill="#000000" font-family="sans-serif" font-size="14" lengthAdjust="spacing" textLength="226" x="357.54" y="170.1895">+selectRestaurant(user, restaurant)</text><text fill="#000000" font-family="sans-serif" font-size="14" lengthAdjust="spacing" textLength="182" x="357.54" y="187.7988">+addToCart(user, itemCode)</text><text fill="#000000" font-family="sans-serif" font-size="14" lengthAdjust="spacing" textLength="371" x="357.54" y="205.4082">+placeOrder(user, orderType, paymentStrategy, schedule)</text></g><!--reverse link Order to DeliveryOrder--><g id="link_Order_DeliveryOrder"><path d="M1000.8628,715.8109 C1006.8228,720.7909 999.02,714.0494 1005.04,718.6094 C1049.13,751.9794 1070.22,744.8694 1114.04,778.6094 C1140.72,799.1594 1166.89,826.1294 1187.22,849.0394 " fill="none" id="Order-backto-DeliveryOrder" style="stroke:#2688D4;stroke-width:1.0;"/><polygon fill="none" points="987.05,704.2694,997.0156,720.4152,1004.71,711.2067,987.05,704.2694" style="stroke:#2688D4;stroke-width:1.0;"/></g><!--reverse link Order to PickupOrder--><g id="link_Order_PickupOrder"><path d="M757.9825,733.9274 C724.4125,784.8474 699.28,822.9594 676.43,857.5994 " fill="none" id="Order-backto-PickupOrder" style="stroke:#2688D4;stroke-width:1.0;"/><polygon fill="none" points="767.89,718.8994,752.9732,730.6249,762.9918,737.2299,767.89,718.8994" style="stroke:#2688D4;stroke-width:1.0;"/></g><!--reverse link OrderFactory to NowOrderFactory--><g id="link_OrderFactory_NowOrderFactory"><path d="M1451.3412,620.23 C1483.3712,681.48 1563.3,805.3294 1608.59,866.5094 " fill="none" id="OrderFactory-backto-NowOrderFactory" style="stroke:#2688D4;stroke-width:1.0;"/><polygon fill="none" points="1443,604.2794,1446.0243,623.0105,1456.6581,617.4496,1443,604.2794" style="stroke:#2688D4;stroke-width:1.0;"/></g><!--reverse link OrderFactory to NowOrderFactory--><g id="link_OrderFactory_NowOrderFactory"><path codeLine="159" d="M1469.7642,618.7062 C1515.4642,679.9562 1592.97,805.3294 1624.57,866.5094 " fill="none" id="OrderFactory-backto-NowOrderFactory-1" style="stroke:#2688D4;stroke-width:1.0;stroke-dasharray:7.0,7.0;"/><polygon fill="none" points="1459,604.2794,1464.9552,622.2942,1474.5731,615.1181,1459,604.2794" style="stroke:#2688D4;stroke-width:1.0;"/></g><!--reverse link OrderFactory to ScheduledOrderFactory--><g id="link_OrderFactory_ScheduledOrderFactory"><path d="M1422.1752,622.1685 C1415.3452,683.4185 1416.91,805.3294 1423.37,866.5094 " fill="none" id="OrderFactory-backto-ScheduledOrderFactory" style="stroke:#2688D4;stroke-width:1.0;"/><polygon fill="none" points="1424.17,604.2794,1416.2121,621.5036,1428.1382,622.8334,1424.17,604.2794" style="stroke:#2688D4;stroke-width:1.0;"/></g><!--reverse link OrderFactory to ScheduledOrderFactory--><g id="link_OrderFactory_ScheduledOrderFactory"><path codeLine="160" d="M1442.1677,622.1682 C1449.0077,683.4182 1446.58,805.3294 1439.35,866.5094 " fill="none" id="OrderFactory-backto-ScheduledOrderFactory-1" style="stroke:#2688D4;stroke-width:1.0;stroke-dasharray:7.0,7.0;"/><polygon fill="none" points="1440.17,604.2794,1436.2048,622.8341,1448.1306,621.5023,1440.17,604.2794" style="stroke:#2688D4;stroke-width:1.0;"/></g><!--reverse link PaymentStrategy to CardPaymentStrategy--><g id="link_PaymentStrategy_CardPaymentStrategy"><path d="M856.0993,945.7093 C852.3193,1002.2493 858.92,1106.9594 867.69,1163.4894 " fill="none" id="PaymentStrategy-backto-CardPaymentStrategy" style="stroke:#2688D4;stroke-width:1.0;"/><polygon fill="none" points="857.3,927.7494,850.1126,945.309,862.0859,946.1095,857.3,927.7494" style="stroke:#2688D4;stroke-width:1.0;"/></g><!--reverse link PaymentStrategy to CardPaymentStrategy--><g id="link_PaymentStrategy_CardPaymentStrategy"><path codeLine="163" d="M876.7325,945.5187 C885.8725,1002.0587 888.4,1106.9594 884.25,1163.4894 " fill="none" id="PaymentStrategy-backto-CardPaymentStrategy-1" style="stroke:#2688D4;stroke-width:1.0;stroke-dasharray:7.0,7.0;"/><polygon fill="none" points="873.86,927.7494,870.8094,946.4762,882.6556,944.5612,873.86,927.7494" style="stroke:#2688D4;stroke-width:1.0;"/></g><!--reverse link PaymentStrategy to UPIStrategy--><g id="link_PaymentStrategy_UPIStrategy"><path d="M829.8023,942.7707 C792.4723,999.3107 735.03,1106.9594 710.26,1163.4894 " fill="none" id="PaymentStrategy-backto-UPIStrategy" style="stroke:#2688D4;stroke-width:1.0;"/><polygon fill="none" points="839.72,927.7494,824.7952,939.4648,834.8094,946.0766,839.72,927.7494" style="stroke:#2688D4;stroke-width:1.0;"/></g><!--reverse link PaymentStrategy to UPIStrategy--><g id="link_PaymentStrategy_UPIStrategy"><path codeLine="164" d="M849.1454,944.275 C824.7354,1000.815 764.5,1106.9594 726.82,1163.4894 " fill="none" id="PaymentStrategy-backto-UPIStrategy-1" style="stroke:#2688D4;stroke-width:1.0;stroke-dasharray:7.0,7.0;"/><polygon fill="none" points="856.28,927.7494,843.6368,941.8968,854.6539,946.6532,856.28,927.7494" style="stroke:#2688D4;stroke-width:1.0;"/></g><!--reverse link FoodieApp to RestaurantManager--><g id="link_FoodieApp_RestaurantManager"><path codeLine="146" d="M489.5557,223.0807 C477.7957,243.5207 471.58,254.3394 461.17,272.4294 " fill="none" id="FoodieApp-backto-RestaurantManager" style="stroke:#2688D4;stroke-width:1.0;"/><polygon fill="none" points="495.54,212.6794,489.0807,215.8853,489.5557,223.0807,496.0149,219.8748,495.54,212.6794" style="stroke:#2688D4;stroke-width:1.0;"/></g><!--reverse link FoodieApp to OrderManager--><g id="link_FoodieApp_OrderManager"><path codeLine="147" d="M746.2073,197.6548 C823.6373,223.3948 900,248.7894 971.47,272.5494 " fill="none" id="FoodieApp-backto-OrderManager" style="stroke:#2688D4;stroke-width:1.0;"/><polygon fill="none" points="734.82,193.8694,739.2518,199.5579,746.2073,197.6548,741.7755,191.9663,734.82,193.8694" style="stroke:#2688D4;stroke-width:1.0;"/></g><!--reverse link User to Cart--><g id="link_User_Cart"><path codeLine="148" d="M277.434,1027.9541 C276.444,1047.5341 276.02,1055.8594 275.02,1075.4294 " fill="none" id="User-backto-Cart" style="stroke:#2688D4;stroke-width:1.0;"/><polygon fill="#2688D4" points="278.04,1015.9694,273.7421,1021.7597,277.434,1027.9541,281.7319,1022.1637,278.04,1015.9694" style="stroke:#2688D4;stroke-width:1.0;"/><text fill="#000000" font-family="sans-serif" font-size="13" lengthAdjust="spacing" textLength="7" x="270.4314" y="1037.5927">1</text><text fill="#000000" font-family="sans-serif" font-size="13" lengthAdjust="spacing" textLength="7" x="268.1789" y="1064.8103">1</text></g><!--reverse link Restaurant to MenuItem--><g id="link_Restaurant_MenuItem"><path codeLine="149" d="M485.04,1604.8194 C485.04,1624.8394 485.04,1633.4294 485.04,1652.5094 " fill="none" id="Restaurant-backto-MenuItem" style="stroke:#2688D4;stroke-width:1.0;"/><polygon fill="#2688D4" points="485.04,1592.8194,481.04,1598.8194,485.04,1604.8194,489.04,1598.8194,485.04,1592.8194" style="stroke:#2688D4;stroke-width:1.0;"/><text fill="#000000" font-family="sans-serif" font-size="13" lengthAdjust="spacing" textLength="7" x="477.8158" y="1613.9081">1</text><text fill="#000000" font-family="sans-serif" font-size="13" lengthAdjust="spacing" textLength="32" x="451.615" y="1641.8676">many</text></g><!--reverse link Cart to Restaurant--><g id="link_Cart_Restaurant"><path codeLine="150" d="M365.0517,1322.4631 C379.9417,1342.2231 388.12,1353.0594 402.84,1372.5794 " fill="none" id="Cart-backto-Restaurant" style="stroke:#2688D4;stroke-width:1.0;"/><polygon fill="none" points="357.83,1312.8794,358.2463,1320.0785,365.0517,1322.4631,364.6354,1315.264,357.83,1312.8794" style="stroke:#2688D4;stroke-width:1.0;"/></g><!--reverse link Cart to MenuItem--><g id="link_Cart_MenuItem"><path codeLine="151" d="M271.767,1324.9708 C277.467,1407.4808 293.3,1506.0194 339.04,1592.6094 C350.37,1614.0594 366.09,1634.2394 383.04,1652.2794 " fill="none" id="Cart-backto-MenuItem" style="stroke:#2688D4;stroke-width:1.0;"/><polygon fill="#2688D4" points="270.94,1312.9994,267.363,1319.2608,271.767,1324.9708,275.344,1318.7094,270.94,1312.9994" style="stroke:#2688D4;stroke-width:1.0;"/><text fill="#000000" font-family="sans-serif" font-size="13" lengthAdjust="spacing" textLength="7" x="263.8425" y="1334.228">1</text><text fill="#000000" font-family="sans-serif" font-size="13" lengthAdjust="spacing" textLength="32" x="340.5306" y="1641.6171">many</text></g><!--reverse link Order to User--><g id="link_Order_User"><path codeLine="152" d="M728.3389,649.4049 C617.1889,711.1249 467.64,794.1594 370.04,848.3494 " fill="none" id="Order-backto-User" style="stroke:#2688D4;stroke-width:1.0;"/><polygon fill="none" points="738.83,643.5794,731.6426,642.9951,728.3389,649.4049,735.5263,649.9892,738.83,643.5794" style="stroke:#2688D4;stroke-width:1.0;"/></g><!--reverse link Order to Restaurant--><g id="link_Order_Restaurant"><path codeLine="153" d="M964.4312,729.5332 C973.7512,749.0032 976.58,758.4194 982.04,778.6094 C1044,1007.8094 1109.21,1122.4594 967.04,1312.6094 C884.93,1422.4194 726.17,1461.2394 613.3,1474.7594 " fill="none" id="Order-backto-Restaurant" style="stroke:#2688D4;stroke-width:1.0;"/><polygon fill="none" points="959.25,718.7094,958.2327,725.8484,964.4312,729.5332,965.4485,722.3942,959.25,718.7094" style="stroke:#2688D4;stroke-width:1.0;"/></g><!--reverse link Order to PaymentStrategy--><g id="link_Order_PaymentStrategy"><path codeLine="154" d="M863.5268,730.8993 C863.6968,786.3193 863.84,832.3794 863.94,866.3494 " fill="none" id="Order-backto-PaymentStrategy" style="stroke:#2688D4;stroke-width:1.0;"/><polygon fill="none" points="863.49,718.8994,859.5084,724.9116,863.5268,730.8993,867.5084,724.8871,863.49,718.8994" style="stroke:#2688D4;stroke-width:1.0;"/></g><!--reverse link Order to MenuItem--><g id="link_Order_MenuItem"><path codeLine="155" d="M994.9655,713.4325 C1019.6855,742.3625 1032.35,760.6294 1039.04,778.6094 C1051.58,812.3394 1044,1294.7294 1035.04,1312.6094 C941.5,1499.2394 722.39,1626.8594 590.7,1689.8094 " fill="none" id="Order-backto-MenuItem" style="stroke:#2688D4;stroke-width:1.0;"/><polygon fill="#2688D4" points="987.17,704.3094,988.0267,711.4694,994.9655,713.4325,994.1088,706.2724,987.17,704.3094" style="stroke:#2688D4;stroke-width:1.0;"/><text fill="#000000" font-family="sans-serif" font-size="13" lengthAdjust="spacing" textLength="7" x="994.9475" y="709.288">1</text><text fill="#000000" font-family="sans-serif" font-size="13" lengthAdjust="spacing" textLength="32" x="598.4938" y="1683.8412">many</text></g><!--reverse link OrderManager to Order--><g id="link_OrderManager_Order"><path codeLine="156" d="M1056.8073,377.067 C1037.9673,395.697 1024.7,408.8994 1005.04,428.6094 C999.21,434.4494 993.25,440.4294 987.25,446.4794 " fill="none" id="OrderManager-backto-Order" style="stroke:#2688D4;stroke-width:1.0;"/><polygon fill="#2688D4" points="1065.34,368.6294,1058.2611,370.0039,1056.8073,377.067,1063.8862,375.6924,1065.34,368.6294" style="stroke:#2688D4;stroke-width:1.0;"/><text fill="#000000" font-family="sans-serif" font-size="13" lengthAdjust="spacing" textLength="7" x="1050.5" y="390.696">1</text><text fill="#000000" font-family="sans-serif" font-size="13" lengthAdjust="spacing" textLength="32" x="994.9177" y="436.5903">many</text></g><!--reverse link RestaurantManager to Restaurant--><g id="link_RestaurantManager_Restaurant"><path codeLine="157" d="M436.6375,380.8678 C444.1475,551.5478 469.44,1126.8094 480.23,1372.3394 " fill="none" id="RestaurantManager-backto-Restaurant" style="stroke:#2688D4;stroke-width:1.0;"/><polygon fill="#2688D4" points="436.11,368.8794,432.3776,375.0494,436.6375,380.8678,440.3699,374.6977,436.11,368.8794" style="stroke:#2688D4;stroke-width:1.0;"/><text fill="#000000" font-family="sans-serif" font-size="13" lengthAdjust="spacing" textLength="7" x="428.9" y="390.6328">1</text><text fill="#000000" font-family="sans-serif" font-size="13" lengthAdjust="spacing" textLength="32" x="446.8318" y="1361.91">many</text></g><!--link OrderManager to OrderFactory--><g id="link_OrderManager_OrderFactory"><path codeLine="161" d="M1206.29,368.8694 C1236.46,385.9494 1269.28,406.5194 1297.04,428.6094 C1340.61,463.2894 1379.4576,507.3181 1404.7976,538.2481 " fill="none" id="OrderManager-to-OrderFactory" style="stroke:#2688D4;stroke-width:1.0;stroke-dasharray:7.0,7.0;"/><polygon fill="#2688D4" points="1408.6,542.8894,1405.9905,533.3925,1405.4313,539.0217,1399.8021,538.4624,1408.6,542.8894" style="stroke:#2688D4;stroke-width:1.0;"/></g><!--link OrderManager to NotificationService--><g id="link_OrderManager_NotificationService"><path codeLine="166" d="M1120.18,368.8194 C1127.92,419.9394 1139.1315,493.997 1145.6415,536.977 " fill="none" id="OrderManager-to-NotificationService" style="stroke:#2688D4;stroke-width:1.0;stroke-dasharray:7.0,7.0;"/><polygon fill="#2688D4" points="1146.54,542.9094,1149.1471,533.4118,1145.7912,537.9658,1141.2373,534.6099,1146.54,542.9094" style="stroke:#2688D4;stroke-width:1.0;"/></g><!--link FoodieApp to User--><g id="link_FoodieApp_User"><path codeLine="167" d="M351.53,185.8794 C311.73,206.5994 274.72,234.6994 251.04,272.6094 C155.05,426.2494 196.6696,639.2927 238.3696,772.6727 " fill="none" id="FoodieApp-to-User" style="stroke:#2688D4;stroke-width:1.0;stroke-dasharray:7.0,7.0;"/><polygon fill="#2688D4" points="240.16,778.3994,241.2922,768.6158,238.668,773.6272,233.6567,771.003,240.16,778.3994" style="stroke:#2688D4;stroke-width:1.0;"/></g><!--link FoodieApp to Cart--><g id="link_FoodieApp_Cart"><path codeLine="168" d="M351.16,171.8494 C295.95,193.0894 241,224.9594 205.04,272.6094 C6,536.3394 103.94,694.0794 180.04,1015.6094 C184.76,1035.5694 189.6951,1050.3424 198.1651,1069.7024 " fill="none" id="FoodieApp-to-Cart" style="stroke:#2688D4;stroke-width:1.0;stroke-dasharray:7.0,7.0;"/><polygon fill="#2688D4" points="200.57,1075.1994,200.6273,1065.3507,198.5659,1070.6186,193.298,1068.5572,200.57,1075.1994" style="stroke:#2688D4;stroke-width:1.0;"/></g><!--link FoodieApp to Restaurant--><g id="link_FoodieApp_Restaurant"><path codeLine="169" d="M594.27,212.6194 C603.67,231.6594 612.08,252.2994 617.04,272.6094 C627.16,314.0594 620.18,326.0594 617.04,368.6094 C603.44,552.3394 578.85,595.7994 556.04,778.6094 C529.87,988.2794 507.3017,1228.093 494.9917,1366.463 " fill="none" id="FoodieApp-to-Restaurant" style="stroke:#2688D4;stroke-width:1.0;stroke-dasharray:7.0,7.0;"/><polygon fill="#2688D4" points="494.46,1372.4394,499.2418,1363.8292,494.9031,1367.459,491.2733,1363.1203,494.46,1372.4394" style="stroke:#2688D4;stroke-width:1.0;"/></g><!--link FoodieApp to Order--><g id="link_FoodieApp_Order"><path codeLine="170" d="M626.7,212.6994 C644.42,231.7294 662.46,252.3494 678.04,272.6094 C715.43,321.2394 748.8083,372.6473 779.3583,423.4573 " fill="none" id="FoodieApp-to-Order" style="stroke:#2688D4;stroke-width:1.0;stroke-dasharray:7.0,7.0;"/><polygon fill="#2688D4" points="782.45,428.5994,781.2405,418.8251,779.8736,424.3143,774.3843,422.9474,782.45,428.5994" style="stroke:#2688D4;stroke-width:1.0;"/></g><!--SRC=[hLPRRzis57xNho1YO9KTs-Y6OGYCBe3hBe21DWkQz7bWHDec8ea2IRdJjlxtdKEA4Yd96OOj3uvqBX-_SwNU4FqYoeegMX0ZYIWg9S-Sc1CdkPGlX9QC73ZFazuiowdMMsEKUAuDtsUoV1H_SF8sCD6coJdyAf6PkXWvapyJ0dzRfUJNdSob8hCVVhgvOJzQyNkf65SJSfgz79MiIzRg3cyFDuT3yYs0BwNXBVg_XqcCC43xJaecEDbM5LcHdUNxGT0Zm2U9e_z5SsLFMGcs8Q8q-5ZIWczipEKHtobZYciTYZAgp8Riu7S1hzS8amgs9EYw9At375L7RlOidNjmVBy78vHqS2ZSEf-H7Cz0ONUMRW7mg7ahyCxTmTzyWEZc0WI5eRMY9H3_t3qlREo65n3UcMT6gdUVU5dlGNABu828pocQsDCKBw2jEjbECiSYopbLQHSo8Y9jw2bjHiZVjMOz3xIDMLqB_KjHcGOrprBc0V8EQcuzDBJhRpwjJzBGV2UrrJ1PF-UyJKzmZ0fou-dq3T0Nc0bzkX_qGGL3m4De3s1BxpsMnDh5nOzAEbd_1tGAc7SiU_B3EkuljsmkCsg4B4DP0ModYnpanpMmTv-_nlXZQpHI8FO_r1xQga-URws3A6EfRQvDLwS59eK-mraqC-t- -HLNWqtCp6w9FYUp6ePoOoSSssbskVzdb_j_Lj46ycOUuKp3Zys6FCG2ws-myuB6cEdin5cTyx2bhiz2cPhc15krgO9yafzXvRfEjOi4YSydMhTxz4etPPQz5mtefRfzy7ex9Aabx4MFdkoJW2eRWMkbwxuFF1TdhXgNP_wxuIKBixvYhS5sl2Izwev7KvFHFAjpOEMuJBJyWyXUwkhYaPLLVvneSQ4_SygQTc5Sw9OxYcLkB5PNb4nnO6JrwNgz1bBsUM5hqn6xbryZY8XSX7i9hyVgqlu_80x273H172bqT4eBtA00SPQ2nI72XS66_fxK9Eu8hyVwyh3_pnWso4-qf4TVVZld_RYwBDWzLkKqQpE4CxGarXI7RKdyIFPvSylAcRUxOw9C_G169FfXx9a4M-NMpHPLsIcOu6wjNdI9xiJt3LmUWWrkng0PZJW8X_Z8rHdk3vTD3OaEbMqo2XXF262KOVULX1z9WyZQW3VZ77Hbw4p2CjdBknH6q1pkvzvPf_EfjEWqkcuqpo4tGTOS-y7sWmlaITfl8wUElaLUwuF1GWyQ0pFo1cBDBHTz4fLE-jp8rMeY3x4-IeBzjBpw_eeiG8F_aMqItEQThg1bSzNTSedzP8kFSx9B3cureWUU6Rm60BrmC82jvbLit_a38wjBnWCoC0jO9D5QU_VNUZrSgHCMauio9hPUtqORCqc6QyOYJUosQSDWSINZaoO6BsW4jB1rY4Ms-h4eI4oiS8dz6m00]--></g></svg>